<?xml version="1.0" encoding="iso-8859-1"?>
<!-- Generator: Adobe Illustrator 19.0.0, SVG Export Plug-In . SVG Version: 6.00 Build 0)  -->
<svg version="1.1" id="Layer_1" xmlns="http://www.w3.org/2000/svg" xmlns:xlink="http://www.w3.org/1999/xlink" x="0px" y="0px"
	 viewBox="0 0 512.006 512.006" style="enable-background:new 0 0 512.006 512.006;" xml:space="preserve">
<polygon style="fill:#1E2E3B;" points="269.664,314.244 242.342,281.851 404.785,144.834 432.613,176.509 "/>
<g>
	<polygon style="fill:#3C5D76;" points="256.003,270.329 107.221,144.834 79.392,176.509 242.342,314.244 256.003,298.047 	"/>
	<rect x="142.995" y="455.504" style="fill:#3C5D76;" width="226.007" height="56.502"/>
</g>
<rect x="255.999" y="455.504" style="fill:#1E2E3B;" width="113.004" height="56.502"/>
<polygon style="fill:#CCE9F9;" points="397.257,469.624 114.748,469.624 114.748,427.247 171.25,285.993 340.756,285.993 
	397.257,427.247 "/>
<polygon style="fill:#93C7EF;" points="397.257,469.624 256.003,469.624 256.003,285.993 340.756,285.993 397.257,427.247 "/>
<circle style="fill:#3C5D76;" cx="255.999" cy="399.002" r="28.251"/>
<path style="fill:#1E2E3B;" d="M256.003,370.745c15.603,0,28.251,12.648,28.251,28.251s-12.648,28.251-28.251,28.251"/>
<path style="fill:#FF5023;" d="M432.571,176.568C432.571,79.048,353.519,0,256.004,0c-97.518,0-176.57,79.048-176.57,176.568
	H432.571z"/>
<path style="fill:#BF3C1A;" d="M432.571,176.568C432.571,79.048,353.519,0,256.004,0c0,30.322-0.001,79.048-0.001,176.568H432.571z"
	/>
<g>
</g>
<g>
</g>
<g>
</g>
<g>
</g>
<g>
</g>
<g>
</g>
<g>
</g>
<g>
</g>
<g>
</g>
<g>
</g>
<g>
</g>
<g>
</g>
<g>
</g>
<g>
</g>
<g>
</g>
</svg>
