<?xml version="1.0" encoding="iso-8859-1"?>
<!-- Generator: Adobe Illustrator 19.0.0, SVG Export Plug-In . SVG Version: 6.00 Build 0)  -->
<svg version="1.1" id="Layer_1" xmlns="http://www.w3.org/2000/svg" xmlns:xlink="http://www.w3.org/1999/xlink" x="0px" y="0px"
	 viewBox="0 0 512 512" style="enable-background:new 0 0 512 512;" xml:space="preserve">
<g>
	<polygon style="fill:#1E2E3B;" points="224.967,31.027 178.421,31.027 178.421,248.242 38.791,248.242 38.788,248.242 
		38.788,356.852 100.853,356.852 100.853,294.788 224.968,294.788 	"/>
	<rect x="7.758" y="108.606" style="fill:#1E2E3B;" width="139.636" height="46.545"/>
</g>
<rect x="116.364" style="fill:#5A8BB0;" width="170.667" height="46.545"/>
<rect x="224.97" style="fill:#3C5D76;" width="62.061" height="46.545"/>
<rect x="116.364" y="93.091" style="fill:#5A8BB0;" width="201.697" height="124.121"/>
<rect x="38.786" y="341.333" style="fill:#78B9EB;" width="403.394" height="100.848"/>
<rect x="224.97" y="341.333" style="fill:#5A8BB0;" width="217.212" height="100.848"/>
<rect x="54.303" y="77.576" style="fill:#CCE9F9;" width="387.879" height="108.606"/>
<rect x="224.97" y="77.576" style="fill:#93C7EF;" width="217.212" height="108.606"/>
<rect x="380.121" y="62.061" style="fill:#5A8BB0;" width="124.121" height="139.636"/>
<circle style="fill:#1E2E3B;" cx="333.576" cy="442.182" r="69.818"/>
<circle style="fill:#5A8BB0;" cx="333.576" cy="442.182" r="23.273"/>
<circle style="fill:#1E2E3B;" cx="147.394" cy="442.182" r="69.818"/>
<circle style="fill:#5A8BB0;" cx="147.394" cy="442.182" r="23.273"/>
<g>
</g>
<g>
</g>
<g>
</g>
<g>
</g>
<g>
</g>
<g>
</g>
<g>
</g>
<g>
</g>
<g>
</g>
<g>
</g>
<g>
</g>
<g>
</g>
<g>
</g>
<g>
</g>
<g>
</g>
</svg>
